<?xml version="1.0" standalone="no"?>
<!DOCTYPE svg PUBLIC "-//W3C//DTD SVG 20010904//EN"
 "http://www.w3.org/TR/2001/REC-SVG-20010904/DTD/svg10.dtd">
<svg version="1.0" xmlns="http://www.w3.org/2000/svg"
 width="692.000000pt" height="452.000000pt" viewBox="0 0 692.000000 452.000000"
 preserveAspectRatio="xMidYMid meet">

<g transform="translate(0.000000,452.000000) scale(0.100000,-0.100000)"
fill="#000000" stroke="none">
<path d="M0 4479 c0 -40 1 -41 28 -34 15 3 41 13 59 22 17 8 58 23 90 33 l58
18 -117 1 -118 1 0 -41z"/>
<path d="M1465 4399 c-251 -13 -432 -73 -549 -180 -96 -87 -196 -268 -237
-430 -20 -77 -22 -117 -28 -484 l-6 -400 -65 -6 c-36 -4 -152 -7 -257 -8
l-193 -1 0 -25 c0 -14 16 -103 35 -198 19 -94 41 -221 49 -281 9 -64 20 -113
28 -117 7 -5 102 -9 211 -9 l197 0 0 -939 0 -938 61 -7 c110 -11 587 -7 595 5
4 6 8 430 10 941 1 511 5 933 9 936 4 4 106 8 227 9 121 1 223 5 226 8 4 3 12
34 19 67 7 34 40 160 73 280 34 120 60 229 58 241 -3 22 -3 22 -291 27 -241 4
-289 7 -297 20 -12 19 -13 662 -1 714 12 48 71 112 129 137 38 17 70 19 258
19 213 0 215 0 223 23 10 27 21 570 12 585 -7 12 -334 20 -496 11z"/>
<path d="M4525 2882 c-115 -1 -213 -6 -217 -10 -11 -11 -12 -2482 -1 -2492 4
-5 126 -5 271 -2 l262 7 0 1244 c0 684 -1 1246 -3 1248 -7 6 -97 8 -312 5z"/>
<path d="M5568 2883 c-220 -3 -288 -6 -289 -16 0 -6 0 -120 1 -252 1 -232 2
-241 22 -258 20 -16 46 -18 319 -16 164 0 302 -2 308 -6 6 -3 11 -11 11 -17 0
-6 -60 -162 -134 -347 -73 -185 -155 -392 -181 -461 -27 -69 -77 -195 -113
-280 -35 -85 -94 -227 -130 -315 l-65 -160 -5 -187 -4 -186 74 -4 c40 -1 350
-1 688 2 l614 5 22 145 c11 80 28 170 36 200 22 78 29 125 22 144 -6 16 -38
17 -386 15 -250 -1 -382 1 -389 8 -7 7 -1 31 20 76 17 37 31 69 31 72 0 3 36
87 81 188 44 100 121 281 169 402 49 121 130 317 180 435 51 118 116 276 145
350 29 74 78 196 109 270 59 142 64 161 44 178 -15 11 -742 20 -1200 15z"/>
<path d="M2119 2863 c-2 -10 -2 -457 1 -993 6 -966 6 -976 28 -1054 28 -100
104 -244 162 -307 83 -89 225 -128 415 -114 161 11 233 42 338 144 47 46 59
53 67 41 9 -15 11 -26 14 -140 l1 -55 225 0 225 0 6 300 c5 214 12 2004 9
2183 0 9 -57 12 -249 12 -138 0 -252 -4 -255 -8 -3 -5 -6 -398 -6 -873 -1
-524 -5 -879 -11 -901 -19 -72 -163 -159 -276 -166 -56 -4 -68 -1 -103 22 -22
14 -47 41 -57 58 -20 37 -20 8 -15 1171 2 373 0 682 -3 687 -4 6 -107 10 -259
10 -234 0 -254 -1 -257 -17z"/>
</g>
</svg>
